<svg width="16" height="17" viewBox="0 0 16 17" fill="none" xmlns="http://www.w3.org/2000/svg">
<path opacity="0.2" d="M13 5.89966H9.5V2.39966L13 5.89966Z" fill="currentColor"/>
<path d="M13.3538 5.54591L9.85375 2.04591C9.80728 1.99949 9.75212 1.96268 9.69143 1.93759C9.63073 1.9125 9.56568 1.89961 9.5 1.89966H3.5C3.23478 1.89966 2.98043 2.00502 2.79289 2.19255C2.60536 2.38009 2.5 2.63444 2.5 2.89966V13.8997C2.5 14.1649 2.60536 14.4192 2.79289 14.6068C2.98043 14.7943 3.23478 14.8997 3.5 14.8997H12.5C12.7652 14.8997 13.0196 14.7943 13.2071 14.6068C13.3946 14.4192 13.5 14.1649 13.5 13.8997V5.89966C13.5001 5.83398 13.4872 5.76893 13.4621 5.70823C13.437 5.64754 13.4002 5.59238 13.3538 5.54591ZM10 3.60653L11.7931 5.39966H10V3.60653ZM12.5 13.8997H3.5V2.89966H9V5.89966C9 6.03227 9.05268 6.15944 9.14645 6.25321C9.24021 6.34698 9.36739 6.39966 9.5 6.39966H12.5V13.8997ZM10.5 8.89966C10.5 9.03227 10.4473 9.15944 10.3536 9.25321C10.2598 9.34698 10.1326 9.39966 10 9.39966H6C5.86739 9.39966 5.74021 9.34698 5.64645 9.25321C5.55268 9.15944 5.5 9.03227 5.5 8.89966C5.5 8.76705 5.55268 8.63987 5.64645 8.5461C5.74021 8.45234 5.86739 8.39966 6 8.39966H10C10.1326 8.39966 10.2598 8.45234 10.3536 8.5461C10.4473 8.63987 10.5 8.76705 10.5 8.89966ZM10.5 10.8997C10.5 11.0323 10.4473 11.1594 10.3536 11.2532C10.2598 11.347 10.1326 11.3997 10 11.3997H6C5.86739 11.3997 5.74021 11.347 5.64645 11.2532C5.55268 11.1594 5.5 11.0323 5.5 10.8997C5.5 10.767 5.55268 10.6399 5.64645 10.5461C5.74021 10.4523 5.86739 10.3997 6 10.3997H10C10.1326 10.3997 10.2598 10.4523 10.3536 10.5461C10.4473 10.6399 10.5 10.767 10.5 10.8997Z" fill="currentColor"/>
</svg>
