<svg width="16" height="17" viewBox="0 0 16 17" fill="none" xmlns="http://www.w3.org/2000/svg">
<path opacity="0.2" d="M14.4824 5.86996H11.5005V2.88806L14.4824 5.86996Z" fill="currentColor"/>
<path fill-rule="evenodd" clip-rule="evenodd" d="M11.8018 2.58676L14.7837 5.56866C14.8232 5.60824 14.8546 5.65524 14.876 5.70695C14.8974 5.75866 14.9083 5.81408 14.9083 5.87004V12.6858C14.9083 12.9118 14.8185 13.1285 14.6588 13.2882C14.499 13.448 14.2823 13.5378 14.0563 13.5378H6.38859C6.16263 13.5378 5.94593 13.448 5.78616 13.2882C5.62638 13.1285 5.53662 12.9118 5.53662 12.6858V3.31413C5.53662 3.08817 5.62638 2.87147 5.78616 2.71169C5.94593 2.55192 6.16263 2.46216 6.38859 2.46216H11.5004C11.5564 2.46211 11.6118 2.4731 11.6635 2.49448C11.7152 2.51585 11.7622 2.54721 11.8018 2.58676ZM13.4541 5.44405L11.9264 3.91637V5.44405H13.4541ZM6.38859 12.6858H14.0563V6.29602H11.5004C11.3874 6.29602 11.2791 6.25114 11.1992 6.17126C11.1193 6.09137 11.0744 5.98302 11.0744 5.87004V3.31413H6.38859V12.6858ZM12.2276 8.72717C12.3075 8.64728 12.3524 8.53893 12.3524 8.42595C12.3524 8.31297 12.3075 8.20462 12.2276 8.12473C12.1477 8.04485 12.0394 7.99997 11.9264 7.99997H8.51852C8.40554 7.99997 8.29719 8.04485 8.2173 8.12473C8.13741 8.20462 8.09253 8.31297 8.09253 8.42595C8.09253 8.53893 8.13741 8.64728 8.2173 8.72717C8.29719 8.80706 8.40554 8.85194 8.51852 8.85194H11.9264C12.0394 8.85194 12.1477 8.80706 12.2276 8.72717ZM12.2276 10.4311C12.3075 10.3512 12.3524 10.2429 12.3524 10.1299C12.3524 10.0169 12.3075 9.90856 12.2276 9.82867C12.1477 9.74879 12.0394 9.70391 11.9264 9.70391H8.51852C8.40554 9.70391 8.29719 9.74879 8.2173 9.82867C8.13741 9.90856 8.09253 10.0169 8.09253 10.1299C8.09253 10.2429 8.13741 10.3512 8.2173 10.4311C8.29719 10.511 8.40554 10.5559 8.51852 10.5559H11.9264C12.0394 10.5559 12.1477 10.511 12.2276 10.4311ZM1.60986 3.49994H3.73419C3.8668 3.49994 3.99398 3.55262 4.08774 3.64639C4.18151 3.74015 4.23419 3.86733 4.23419 3.99994C4.23419 4.13255 4.18151 4.25972 4.08774 4.35349C3.99398 4.44726 3.8668 4.49994 3.73419 4.49994H1.60986C1.47726 4.49994 1.35008 4.44726 1.25631 4.35349C1.16254 4.25972 1.10986 4.13255 1.10986 3.99994C1.10986 3.86733 1.16254 3.74015 1.25631 3.64639C1.35008 3.55262 1.47726 3.49994 1.60986 3.49994ZM1.60986 7.49994H3.73419C3.8668 7.49994 3.99398 7.55262 4.08774 7.64639C4.18151 7.74015 4.23419 7.86733 4.23419 7.99994C4.23419 8.13255 4.18151 8.25972 4.08774 8.35349C3.99398 8.44726 3.8668 8.49994 3.73419 8.49994H1.60986C1.47726 8.49994 1.35008 8.44726 1.25631 8.35349C1.16254 8.25972 1.10986 8.13255 1.10986 7.99994C1.10986 7.86733 1.16254 7.74015 1.25631 7.64639C1.35008 7.55262 1.47726 7.49994 1.60986 7.49994ZM3.73419 11.4999H1.60986C1.47726 11.4999 1.35008 11.5526 1.25631 11.6464C1.16254 11.7402 1.10986 11.8673 1.10986 11.9999C1.10986 12.1325 1.16254 12.2597 1.25631 12.3535C1.35008 12.4473 1.47726 12.4999 1.60986 12.4999H3.73419C3.8668 12.4999 3.99398 12.4473 4.08774 12.3535C4.18151 12.2597 4.23419 12.1325 4.23419 11.9999C4.23419 11.8673 4.18151 11.7402 4.08774 11.6464C3.99398 11.5526 3.8668 11.4999 3.73419 11.4999Z" fill="currentColor"/>
</svg>
