<svg width="16" height="16" viewBox="0 0 16 16" fill="none" xmlns="http://www.w3.org/2000/svg">
<path opacity="0.2" d="M5.75189 6.75293L7.81049 6.06934L7.90424 6.0459C7.9992 6.03056 8.09721 6.03869 8.18939 6.06934L10.247 6.75293L7.99994 3.07812L5.75189 6.75293Z" fill="#F8FAFC"/>
<path d="M8.00001 1.3291C8.2088 1.3291 8.40267 1.4372 8.51172 1.61523L14.5117 11.4238C14.6045 11.5754 14.6252 11.7603 14.5684 11.9287C14.5116 12.097 14.3833 12.2314 14.2178 12.2959L8.21778 14.6299C8.07789 14.6843 7.92213 14.6843 7.78223 14.6299L1.78223 12.2959C1.61675 12.2314 1.48843 12.097 1.43165 11.9287C1.37484 11.7603 1.39555 11.5754 1.48829 11.4238L7.48829 1.61523L7.53321 1.55176C7.64622 1.41178 7.81736 1.3291 8.00001 1.3291ZM4.78126 8.33984L2.88575 11.4375L7.4004 13.1934V7.46973L4.78126 8.33984ZM8.59962 13.1934L13.1133 11.4375L11.2178 8.33984L8.59962 7.46973V13.1934ZM5.75196 6.75293L7.81055 6.06934L7.9043 6.0459C7.99927 6.03056 8.09728 6.03869 8.18946 6.06934L10.2471 6.75293L8.00001 3.07812L5.75196 6.75293Z" fill="#F8FAFC"/>
</svg>
