<svg width="32" height="32" viewBox="0 0 32 32" fill="none" xmlns="http://www.w3.org/2000/svg">
<path fill-rule="evenodd" clip-rule="evenodd" d="M10 3.36133C12.7614 3.36133 15 5.5999 15 8.36133C15 10.7664 13.3017 12.7736 11.0391 13.252C11.4926 18.9104 16.2248 23.3613 22 23.3613H22.126C22.57 21.6361 24.1362 20.3613 26 20.3613C28.2091 20.3613 30 22.1522 30 24.3613C30 26.5705 28.2091 28.3613 26 28.3613C24.1362 28.3613 22.57 27.0866 22.126 25.3613H22C17.368 25.3613 13.3025 22.9383 11 19.291L10.3106 18.0047C10.188 17.7379 9.89806 17.0555 9.69256 16.5172C9.48706 15.979 9.28597 15.3166 9.16102 14.7707L9 13.2607C6.71781 12.7974 5 10.7802 5 8.36133C5 5.5999 7.23858 3.36133 10 3.36133ZM26 22.3613C24.8954 22.3613 24 23.2568 24 24.3613C24 25.4659 24.8954 26.3613 26 26.3613C27.1046 26.3613 28 25.4659 28 24.3613C28 23.2568 27.1046 22.3613 26 22.3613Z" fill="currentColor"/>
<path d="M14.0029 8C14.0029 8.79112 13.7683 9.56448 13.3288 10.2223C12.8893 10.8801 12.2646 11.3928 11.5337 11.6955C10.8028 11.9983 9.99849 12.0775 9.22257 11.9231C8.44665 11.7688 7.73391 11.3878 7.1745 10.8284C6.61509 10.269 6.23413 9.55628 6.07979 8.78036C5.92545 8.00444 6.00466 7.20017 6.30741 6.46927C6.61016 5.73836 7.12285 5.11365 7.78065 4.67412C8.43845 4.2346 9.21181 4 10.0029 4C11.0638 4 12.0812 4.42143 12.8314 5.17157C13.5815 5.92172 14.0029 6.93913 14.0029 8Z" fill="currentColor"/>
</svg>
