<svg width="1440" height="991" viewBox="0 0 1440 991" fill="none" xmlns="http://www.w3.org/2000/svg">
<g filter="url(#filter0_f_169_4052)">
<g clip-path="url(#clip0_169_4052)">
<rect width="1440" height="944" transform="translate(0 47)" fill="#020617"/>
<g opacity="0.1" filter="url(#filter1_f_169_4052)">
<circle cx="1312.5" cy="55.6934" r="536.307" fill="#DA4791"/>
</g>
<g opacity="0.1" filter="url(#filter2_f_169_4052)">
<circle cx="84.2959" cy="989.671" r="552.671" fill="#52C5E0"/>
</g>
</g>
<path opacity="0.1" d="M1637.71 5.11963V1131.28M1554.24 5.11963V1131.28M1470.77 5.11963V1131.28M1387.29 5.11963V1131.28M1303.82 5.11963V1131.28M1220.35 5.11963V1131.28M1136.88 5.11963V1131.28M1053.41 5.11963V1131.28M969.937 5.11963V1131.28M886.465 5.11963V1131.28M802.993 5.11963V1131.28M719.522 5.11963L719.522 1131.28M636.05 5.11963L636.05 1131.28M552.579 5.11963L552.578 1131.28M469.107 5.11963L469.107 1131.28M385.635 5.11963L385.635 1131.28M302.164 5.11963L302.164 1131.28M218.692 5.11963L218.692 1131.28M135.221 5.11963L135.22 1131.28M51.7489 5.11963L51.7488 1131.28M-31.7227 5.11963L-31.7227 1131.28M-115.194 5.11963L-115.194 1131.28M-198.666 5.11963L-198.666 1131.28M1720.66 172.263L-282.659 172.263M1720.66 255.574L-282.659 255.574M1720.66 338.885L-282.659 338.885M1720.66 422.196L-282.659 422.196M1720.66 505.508L-282.659 505.507M1720.66 588.819L-282.659 588.818M1720.66 672.13L-282.659 672.13M1720.66 755.441L-282.659 755.441M1720.66 838.752L-282.659 838.752M1720.66 922.064L-282.659 922.063M1720.66 1005.37L-282.659 1005.37M1720.66 1088.69L-282.659 1088.69M1720.66 88.9515L-282.659 88.9513" stroke="#E2E8F0" stroke-width="1.5"/>
<path d="M1383.95 181.898L1383.9 221.557L1371.46 194.41L1344.23 181.835L1383.95 181.898Z" fill="#64748B"/>
<path d="M1383.59 264.701L1383.54 304.361L1371.09 277.214L1343.87 264.639L1383.59 264.701Z" fill="#64748B"/>
<path d="M1383.95 347.854L1383.9 387.513L1371.46 360.366L1344.23 347.791L1383.95 347.854Z" fill="#64748B"/>
<path d="M1383.95 431.426L1383.9 471.086L1371.46 443.939L1344.23 431.364L1383.95 431.426Z" fill="#64748B"/>
<path d="M1383.95 764.528L1383.9 804.187L1371.46 777.04L1344.23 764.465L1383.95 764.528Z" fill="#64748B"/>
<path d="M1383.95 848.1L1383.9 887.759L1371.46 860.612L1344.23 848.037L1383.95 848.1Z" fill="#64748B"/>
<path d="M1383.95 931.672L1383.9 971.332L1371.46 944.184L1344.23 931.609L1383.95 931.672Z" fill="#64748B"/>
<path d="M1286.66 181.899L1286.61 221.558L1274.16 194.411L1246.94 181.836L1286.66 181.899Z" fill="#64748B"/>
<path d="M1202.48 99.0959L1202.43 138.755L1189.98 111.608L1162.76 99.0332L1202.48 99.0959Z" fill="#64748B"/>
<path d="M868.826 181.576L868.776 221.236L856.33 194.089L829.106 181.514L868.826 181.576Z" fill="#64748B"/>
<path d="M952.404 181.576L952.354 221.236L939.908 194.089L912.685 181.514L952.404 181.576Z" fill="#64748B"/>
<path d="M868.826 98.0627L868.776 137.722L856.33 110.575L829.106 98L868.826 98.0627Z" fill="#64748B"/>
<path d="M785.584 181.576L785.534 221.236L773.088 194.089L745.865 181.514L785.584 181.576Z" fill="#64748B"/>
<path d="M785.583 98.0627L785.534 137.722L773.088 110.575L745.864 98L785.583 98.0627Z" fill="#64748B"/>
<path d="M702.214 181.576L702.164 221.236L689.718 194.089L662.494 181.514L702.214 181.576Z" fill="#64748B"/>
<path d="M1119.22 264.701L1119.17 304.361L1106.73 277.214L1079.51 264.639L1119.22 264.701Z" fill="#64748B"/>
<path d="M1119.45 347.779L1119.4 387.439L1106.95 360.292L1079.73 347.717L1119.45 347.779Z" fill="#64748B"/>
<path d="M1119.45 431.426L1119.4 471.086L1106.95 443.938L1079.73 431.363L1119.45 431.426Z" fill="#64748B"/>
<path d="M1119.45 514.481L1119.4 554.14L1106.95 526.993L1079.73 514.418L1119.45 514.481Z" fill="#64748B"/>
<path d="M1203.04 598.158L1202.99 637.818L1190.55 610.671L1163.32 598.096L1203.04 598.158Z" fill="#64748B"/>
<path d="M1202.84 681.805L1202.79 721.464L1190.35 694.317L1163.12 681.742L1202.84 681.805Z" fill="#64748B"/>
<path d="M1036.06 264.701L1036.01 304.361L1023.57 277.214L996.344 264.639L1036.06 264.701Z" fill="#64748B"/>
<path d="M1036.06 347.779L1036.01 387.439L1023.57 360.292L996.344 347.717L1036.06 347.779Z" fill="#64748B"/>
<path d="M1036.06 431.426L1036.01 471.086L1023.57 443.938L996.344 431.363L1036.06 431.426Z" fill="#64748B"/>
<path d="M1035.85 514.481L1035.8 554.14L1023.36 526.993L996.133 514.418L1035.85 514.481Z" fill="#64748B"/>
<path d="M1119.45 597.733L1119.4 637.392L1106.95 610.245L1079.73 597.67L1119.45 597.733Z" fill="#64748B"/>
<path d="M1119.45 681.805L1119.4 721.464L1106.95 694.317L1079.73 681.742L1119.45 681.805Z" fill="#64748B"/>
<path d="M952.185 264.701L952.135 304.361L939.689 277.214L912.466 264.639L952.185 264.701Z" fill="#64748B"/>
<path d="M952.185 347.779L952.135 387.439L939.689 360.292L912.466 347.717L952.185 347.779Z" fill="#64748B"/>
<path d="M952.185 431.426L952.135 471.086L939.689 443.938L912.466 431.363L952.185 431.426Z" fill="#64748B"/>
<path d="M952.185 514.481L952.135 554.14L939.689 526.993L912.466 514.418L952.185 514.481Z" fill="#64748B"/>
<path d="M1035.85 597.734L1035.8 637.393L1023.36 610.246L996.133 597.671L1035.85 597.734Z" fill="#64748B"/>
<path d="M1035.85 681.805L1035.8 721.464L1023.36 694.317L996.133 681.742L1035.85 681.805Z" fill="#64748B"/>
<path d="M1035.85 764.528L1035.8 804.187L1023.36 777.04L996.133 764.465L1035.85 764.528Z" fill="#64748B"/>
<path d="M952.185 681.805L952.135 721.464L939.689 694.317L912.466 681.742L952.185 681.805Z" fill="#64748B"/>
<path d="M952.185 764.528L952.135 804.187L939.689 777.04L912.466 764.465L952.185 764.528Z" fill="#64748B"/>
<path d="M868.826 264.701L868.776 304.361L856.33 277.214L829.106 264.639L868.826 264.701Z" fill="#64748B"/>
<path d="M869.085 347.779L869.035 387.439L856.589 360.292L829.366 347.717L869.085 347.779Z" fill="#64748B"/>
<path d="M869.085 431.426L869.035 471.086L856.589 443.938L829.366 431.363L869.085 431.426Z" fill="#64748B"/>
<path d="M785.583 264.701L785.534 304.361L773.088 277.214L745.864 264.639L785.583 264.701Z" fill="#64748B"/>
<path d="M785.583 347.779L785.534 387.439L773.088 360.292L745.864 347.717L785.583 347.779Z" fill="#64748B"/>
<path d="M785.583 431.426L785.534 471.086L773.088 443.938L745.864 431.363L785.583 431.426Z" fill="#64748B"/>
<path d="M702.213 264.701L702.164 304.361L689.718 277.214L662.494 264.639L702.213 264.701Z" fill="#64748B"/>
<path d="M702.213 347.779L702.164 387.439L689.718 360.292L662.494 347.717L702.213 347.779Z" fill="#64748B"/>
<path d="M702.082 431.426L702.032 471.086L689.586 443.938L662.363 431.363L702.082 431.426Z" fill="#64748B"/>
<path d="M618.219 347.779L618.169 387.439L605.724 360.292L578.5 347.717L618.219 347.779Z" fill="#64748B"/>
<path d="M1202.48 264.701L1202.43 304.361L1189.98 277.214L1162.76 264.639L1202.48 264.701Z" fill="#64748B"/>
<path d="M1202.84 347.78L1202.79 387.44L1190.35 360.292L1163.12 347.717L1202.84 347.78Z" fill="#64748B"/>
<path d="M1202.84 431.426L1202.79 471.086L1190.35 443.939L1163.12 431.364L1202.84 431.426Z" fill="#64748B"/>
<path d="M1202.84 514.511L1202.79 554.171L1190.35 527.024L1163.12 514.449L1202.84 514.511Z" fill="#64748B"/>
<path d="M1286.64 598.158L1286.59 637.818L1274.14 610.671L1246.92 598.096L1286.64 598.158Z" fill="#64748B"/>
<path d="M1286.64 681.805L1286.59 721.464L1274.14 694.317L1246.92 681.742L1286.64 681.805Z" fill="#64748B"/>
<path d="M1286.64 764.528L1286.59 804.187L1274.14 777.04L1246.92 764.465L1286.64 764.528Z" fill="#64748B"/>
<path d="M1202.84 764.528L1202.79 804.187L1190.35 777.04L1163.12 764.465L1202.84 764.528Z" fill="#64748B"/>
<path d="M1286.34 848.1L1286.29 887.759L1273.85 860.612L1246.62 848.037L1286.34 848.1Z" fill="#64748B"/>
<path d="M1286.66 264.701L1286.61 304.361L1274.16 277.214L1246.94 264.639L1286.66 264.701Z" fill="#64748B"/>
<path d="M1286.34 347.854L1286.29 387.513L1273.85 360.366L1246.62 347.791L1286.34 347.854Z" fill="#4D80E6"/>
<path d="M1286.48 431.426L1286.43 471.086L1273.99 443.938L1246.77 431.363L1286.48 431.426Z" fill="#64748B"/>
</g>
<defs>
<filter id="filter0_f_169_4052" x="-287.659" y="0.119629" width="2013.32" height="1136.16" filterUnits="userSpaceOnUse" color-interpolation-filters="sRGB">
<feFlood flood-opacity="0" result="BackgroundImageFix"/>
<feBlend mode="normal" in="SourceGraphic" in2="BackgroundImageFix" result="shape"/>
<feGaussianBlur stdDeviation="2.5" result="effect1_foregroundBlur_169_4052"/>
</filter>
<filter id="filter1_f_169_4052" x="376.194" y="-880.613" width="1872.61" height="1872.61" filterUnits="userSpaceOnUse" color-interpolation-filters="sRGB">
<feFlood flood-opacity="0" result="BackgroundImageFix"/>
<feBlend mode="normal" in="SourceGraphic" in2="BackgroundImageFix" result="shape"/>
<feGaussianBlur stdDeviation="200" result="effect1_foregroundBlur_169_4052"/>
</filter>
<filter id="filter2_f_169_4052" x="-868.375" y="37" width="1905.34" height="1905.34" filterUnits="userSpaceOnUse" color-interpolation-filters="sRGB">
<feFlood flood-opacity="0" result="BackgroundImageFix"/>
<feBlend mode="normal" in="SourceGraphic" in2="BackgroundImageFix" result="shape"/>
<feGaussianBlur stdDeviation="200" result="effect1_foregroundBlur_169_4052"/>
</filter>
<clipPath id="clip0_169_4052">
<rect width="1440" height="944" fill="white" transform="translate(0 47)"/>
</clipPath>
</defs>
</svg>
