<svg width="16" height="16" viewBox="0 0 16 16" fill="none" xmlns="http://www.w3.org/2000/svg">
<path stroke="currentColor" fill-rule="evenodd" clip-rule="evenodd" d="M14.3711 1.3999C14.6472 1.3999 14.8711 1.64971 14.8711 1.95786V13.1169C14.8711 13.4251 14.6472 13.6749 14.3711 13.6749C14.095 13.6749 13.8711 13.4251 13.8711 13.1169V1.95786C13.8711 1.64971 14.095 1.3999 14.3711 1.3999Z" fill="#F8FAFC"/>
<path stroke="currentColor" fill-rule="evenodd" clip-rule="evenodd" d="M4.48706 1.4932C4.64842 1.40435 4.83035 1.35962 5.01451 1.36352C5.19866 1.36741 5.37854 1.41979 5.536 1.51537L5.53766 1.51638L5.53766 1.51638L13.8708 6.61301C13.8713 6.6133 13.8718 6.61359 13.8723 6.61388C14.0243 6.70622 14.15 6.83609 14.2373 6.99105C14.3249 7.14649 14.371 7.32191 14.371 7.50033C14.371 7.67876 14.3249 7.85418 14.2373 8.00962C14.15 8.16457 14.0243 8.29445 13.8723 8.38679C13.8718 8.38708 13.8713 8.38737 13.8708 8.38766L5.53766 13.4843L5.536 13.4853C5.37854 13.5809 5.19866 13.6333 5.01451 13.6372C4.83035 13.641 4.64842 13.5963 4.48706 13.5075C4.3257 13.4186 4.19063 13.2888 4.09545 13.1311C4.00026 12.9734 3.94835 12.7934 3.94493 12.6092L3.94482 12.5984V11.9266C3.94482 11.6037 4.20665 11.3419 4.52962 11.3419C4.85259 11.3419 5.11441 11.6037 5.11441 11.9266V12.3721L13.08 7.50033L5.10321 2.62167C5.04981 2.88931 4.81371 3.09113 4.53032 3.09141C4.20735 3.09174 3.94526 2.83019 3.94493 2.50722L3.94482 2.4029L3.94493 2.39145C3.94835 2.20728 4.00026 2.02727 4.09545 1.86957C4.19063 1.71186 4.3257 1.58205 4.48706 1.4932Z" fill="#F8FAFC"/>
<path stroke="currentColor" d="M5.64564 4.62902C5.6882 4.49673 5.63176 4.35276 5.51063 4.28463C5.38951 4.2165 5.23716 4.24304 5.14621 4.34812L2.44241 7.47181C2.37979 7.54417 2.35653 7.64258 2.38014 7.73531C2.40374 7.82804 2.47123 7.90336 2.56083 7.93696L3.60271 8.32766L2.83962 10.5547C2.79408 10.6876 2.84951 10.8341 2.97161 10.9036C3.09372 10.9731 3.24799 10.9459 3.33899 10.8389L6.15606 7.5256C6.21775 7.45304 6.24024 7.35499 6.21634 7.26281C6.19244 7.17062 6.12514 7.09585 6.03597 7.06242L4.98911 6.66985L5.64564 4.62902Z" fill="#F8FAFC"/>
</svg>
