<svg width="33" height="32" viewBox="0 0 33 32" fill="none" xmlns="http://www.w3.org/2000/svg">
<path d="M14.1426 10.9504C14.144 10.8698 14.1663 10.7911 14.2072 10.722C14.2481 10.653 14.3061 10.5962 14.3755 10.5573C14.4448 10.5185 14.5229 10.4989 14.602 10.5006C14.6811 10.5023 14.7584 10.5252 14.826 10.567L22.9305 15.6169C22.9953 15.6569 23.0488 15.7131 23.0859 15.7803C23.1231 15.8474 23.1426 15.9232 23.1426 16.0003C23.1426 16.0774 23.1231 16.1532 23.0859 16.2204C23.0488 16.2875 22.9953 16.3438 22.9305 16.3837L14.826 21.4336C14.7584 21.4754 14.6811 21.4983 14.602 21.5001C14.5229 21.5018 14.4448 21.4822 14.3755 21.4433C14.3061 21.4044 14.2481 21.3476 14.2072 21.2786C14.1663 21.2096 14.144 21.1308 14.1426 21.0502V20.809" stroke="#F8FAFC" stroke-linecap="round" stroke-linejoin="round"/>
<path d="M15.2973 12.8021L14.4958 15.2935L15.9088 15.8234L12.8654 19.4028L13.7893 16.7065L12.3763 16.1766L15.2973 12.8021Z" fill="#F8FAFC" stroke="#F8FAFC" stroke-width="0.5" stroke-linecap="round" stroke-linejoin="round"/>
<path d="M23.1426 10.5V21.5" stroke="#F8FAFC" stroke-linecap="round" stroke-linejoin="round"/>
</svg>
