<svg width="16" height="16" viewBox="0 0 16 16" fill="none" xmlns="http://www.w3.org/2000/svg">
<g opacity="0.5">
<path d="M1.50039 8.00039C1.50172 6.80733 1.97625 5.6635 2.81987 4.81988C3.6635 3.97625 4.80733 3.50172 6.00039 3.50039H12.0004V2.50039C12.0003 2.40145 12.0296 2.3047 12.0845 2.2224C12.1395 2.14011 12.2176 2.07596 12.309 2.03808C12.4004 2.00021 12.501 1.9903 12.598 2.00963C12.6951 2.02895 12.7842 2.07664 12.8541 2.14664L14.3541 3.64664C14.4006 3.69308 14.4375 3.74822 14.4627 3.80892C14.4878 3.86962 14.5008 3.93469 14.5008 4.00039C14.5008 4.0661 14.4878 4.13117 14.4627 4.19186C14.4375 4.25256 14.4006 4.30771 14.3541 4.35414L12.8541 5.85414C12.7842 5.92415 12.6951 5.97183 12.598 5.99116C12.501 6.01048 12.4004 6.00058 12.309 5.96271C12.2176 5.92483 12.1395 5.86068 12.0845 5.77838C12.0296 5.69609 12.0003 5.59934 12.0004 5.50039V4.50039H6.00039C5.07244 4.50139 4.18278 4.87045 3.52662 5.52662C2.87045 6.18278 2.50139 7.07244 2.50039 8.00039C2.50039 8.133 2.44771 8.26018 2.35395 8.35395C2.26018 8.44772 2.133 8.50039 2.00039 8.50039C1.86779 8.50039 1.74061 8.44772 1.64684 8.35395C1.55307 8.26018 1.50039 8.133 1.50039 8.00039ZM14.0004 7.50039C13.8678 7.50039 13.7406 7.55307 13.6468 7.64684C13.5531 7.74061 13.5004 7.86779 13.5004 8.00039C13.4994 8.92835 13.1303 9.81801 12.4742 10.4742C11.818 11.1303 10.9283 11.4994 10.0004 11.5004H4.00039V10.5004C4.00047 10.4014 3.97119 10.3047 3.91625 10.2224C3.86132 10.1401 3.7832 10.076 3.69179 10.0381C3.60038 10.0002 3.49978 9.9903 3.40274 10.0096C3.3057 10.029 3.21657 10.0766 3.14664 10.1466L1.64664 11.6466C1.60016 11.6931 1.56328 11.7482 1.53811 11.8089C1.51295 11.8696 1.5 11.9347 1.5 12.0004C1.5 12.0661 1.51295 12.1312 1.53811 12.1919C1.56328 12.2526 1.60016 12.3077 1.64664 12.3541L3.14664 13.8541C3.21657 13.9241 3.3057 13.9718 3.40274 13.9912C3.49978 14.0105 3.60038 14.0006 3.69179 13.9627C3.7832 13.9248 3.86132 13.8607 3.91625 13.7784C3.97119 13.6961 4.00047 13.5993 4.00039 13.5004V12.5004H10.0004C11.1935 12.4991 12.3373 12.0245 13.1809 11.1809C14.0245 10.3373 14.4991 9.19346 14.5004 8.00039C14.5004 7.86779 14.4477 7.74061 14.3539 7.64684C14.2602 7.55307 14.133 7.50039 14.0004 7.50039Z" fill="currentColor"/>
<path d="M8.7489 6L8.81775 6.00488C8.97659 6.02694 9.11688 6.12434 9.19226 6.26904C9.27834 6.43437 9.26542 6.6339 9.15857 6.78662L8.66052 7.49756C8.80153 7.59596 8.92324 7.72025 9.01892 7.86426C9.14434 8.05306 9.2212 8.26995 9.24255 8.49561C9.26389 8.72125 9.22928 8.94875 9.14148 9.15771C9.05367 9.36669 8.91526 9.55067 8.73914 9.69336C8.56302 9.83601 8.35433 9.93305 8.13171 9.97559C7.90912 10.0181 7.67954 10.0047 7.46326 9.93701C7.24692 9.86931 7.05065 9.74928 6.89197 9.5874C6.69868 9.3902 6.70162 9.07367 6.8988 8.88037C7.09601 8.68707 7.41254 8.69049 7.60583 8.8877C7.64907 8.93179 7.70267 8.96444 7.7616 8.98291C7.8206 9.00138 7.88349 9.00477 7.94421 8.99316C8.00486 8.98156 8.06175 8.95535 8.10974 8.9165C8.15778 8.87758 8.19566 8.82702 8.2196 8.77002C8.24346 8.71313 8.25273 8.65126 8.24695 8.58984C8.24112 8.52829 8.22013 8.46898 8.18591 8.41748C8.15172 8.36605 8.10557 8.32363 8.05115 8.29443C7.99668 8.26523 7.9357 8.25002 7.8739 8.25C7.68752 8.24997 7.51664 8.14625 7.43054 7.98096C7.34448 7.81563 7.35739 7.61609 7.46423 7.46338L7.78845 7H7.2489C6.97276 7 6.7489 6.77614 6.7489 6.5C6.7489 6.22386 6.97276 6 7.2489 6H8.7489Z" fill="currentColor"/>
</g>
</svg>
